<?xml version="1.0" encoding="utf-8"?>
<!-- Generator: Adobe Illustrator 16.0.0, SVG Export Plug-In . SVG Version: 6.00 Build 0)  -->
<!DOCTYPE svg PUBLIC "-//W3C//DTD SVG 1.1//EN" "http://www.w3.org/Graphics/SVG/1.1/DTD/svg11.dtd">
<svg version="1.1" id="verdacht-logo" xmlns="http://www.w3.org/2000/svg" xmlns:xlink="http://www.w3.org/1999/xlink" x="0px"
	 y="0px" width="203.2px" height="218.5px" viewBox="0 0 203.2 218.5" enable-background="new 0 0 203.2 218.5"
	 xml:space="preserve">
<path id="signet" fill="#FFFFFF" d="M48.9,0v147.5h105.5V0H48.9z M101.5,132L59.8,27.2h18.9l22.9,57.7l23.1-57.7h18.9L101.5,132z"/>
<g id="font">
	<g>
		<path fill="#FFFFFF" d="M8.2,211.2v1.3c0,1.3-1,2.3-2.3,2.3s-2.3-1-2.3-2.3v-5.9c0-1.3,1-2.3,2.3-2.3s2.3,1,2.3,2.3v3.2H4.8v2.8
			c0,0.7,0.5,1.2,1.2,1.2s1.2-0.5,1.2-1.2v-1.2L8.2,211.2z M4.8,208.7h2.4v-2.1c0-0.7-0.5-1.2-1.2-1.2s-1.2,0.5-1.2,1.2V208.7z"/>
		<path fill="#FFFFFF" d="M10.3,201.8h1.1v1.5h-1.1V201.8z M11.4,204.4h-1.1v10.2h1.1V204.4z"/>
		<path fill="#FFFFFF" d="M13.7,214.7v-10.2h0.8l0.2,0.8c0.4-0.5,0.9-0.9,1.6-0.9c1.1,0,2,1,2,2.3v8.1h-1.1v-8.1
			c0-0.7-0.5-1.2-1.2-1.2s-1.2,0.5-1.2,1.2v8.1H13.7z"/>
		<path fill="#FFFFFF" d="M23.7,200.6l1.1-0.1v4.5c0.4-0.4,0.9-0.7,1.4-0.7c1.1,0,2,1,2,2.3v5.9c0,1.3-0.9,2.3-2,2.3
			c-0.7,0-1.2-0.4-1.6-0.9l-0.2,0.8h-0.8V200.6z M24.8,212.5c0,0.7,0.5,1.2,1.2,1.2s1.2-0.5,1.2-1.2v-5.9c0-0.7-0.5-1.2-1.2-1.2
			s-1.2,0.5-1.2,1.2V212.5z"/>
		<path fill="#FFFFFF" d="M30.4,201.8h1.1v1.5h-1.1V201.8z M31.5,204.4h-1.1v10.2h1.1V204.4z"/>
		<path fill="#FFFFFF" d="M33.7,214.7v-10.2h0.8l0.2,0.8c0.4-0.5,0.9-0.9,1.6-0.9c1.1,0,2,1,2,2.3v8.1h-1.1v-8.1
			c0-0.7-0.5-1.2-1.2-1.2s-1.2,0.5-1.2,1.2v8.1H33.7z"/>
		<path fill="#FFFFFF" d="M44.7,213.2c0,0.2,0.2,0.4,0.4,0.4v1.1c-0.4,0-0.8-0.2-1.1-0.5c-0.4,0.4-0.9,0.6-1.5,0.6
			c-1.3,0-2.3-1-2.3-2.3v-1.2c0-1,0.9-1.6,0.9-1.6l1.6-0.9c0,0,0.9-0.5,0.9-1.4v-1c0-0.6-0.5-1.1-1-1.1s-1,0.5-1,1.1v1.2l-1.1,0.1
			v-1.3c0-1.2,1-2.1,2.1-2.1s2.1,1,2.1,2.1V213.2z M41.3,212.5c0,0.7,0.5,1.2,1.2,1.2s1.2-0.5,1.2-1.2v-3c-0.2,0.2-0.4,0.3-0.4,0.3
			l-1.6,0.9c0,0-0.4,0.2-0.4,0.6V212.5z"/>
		<path fill="#FFFFFF" d="M51.5,204.4v10.2h-0.8l-0.2-0.8c-0.4,0.5-0.9,0.9-1.6,0.9c-1.1,0-2-1-2-2.3v-8.1h1.1v8.1
			c0,0.7,0.5,1.2,1.2,1.2s1.2-0.5,1.2-1.2v-8.1H51.5z"/>
		<path fill="#FFFFFF" d="M56.9,205.4h-0.8c-0.7,0-1.3,0.6-1.3,1.3v8h-1.1v-10.2h0.8l0.2,0.8c0.4-0.5,1.1-0.9,2.2-0.9V205.4z"/>
		<path fill="#FFFFFF" d="M62.6,213.2c0,0.2,0.2,0.4,0.4,0.4v1.1c-0.4,0-0.8-0.2-1.1-0.5c-0.4,0.4-0.9,0.6-1.5,0.6
			c-1.3,0-2.3-1-2.3-2.3v-1.2c0-1,0.9-1.6,0.9-1.6l1.6-0.9c0,0,0.9-0.5,0.9-1.4v-1c0-0.6-0.5-1.1-1-1.1s-1,0.5-1,1.1v1.2l-1.1,0.1
			v-1.3c0-1.2,1-2.1,2.1-2.1s2.1,1,2.1,2.1V213.2z M59.1,212.5c0,0.7,0.5,1.2,1.2,1.2s1.2-0.5,1.2-1.2v-3c-0.2,0.2-0.4,0.3-0.4,0.3
			l-1.6,0.9c0,0-0.4,0.2-0.4,0.6V212.5z"/>
		<path fill="#FFFFFF" d="M66.4,214.8c-0.8,0-1.5-0.7-1.5-1.5v-12.6l1.1-0.1v12.8c0,0.2,0.2,0.4,0.4,0.4V214.8z"/>
		<path fill="#FFFFFF" d="M72.8,211.2v1.3c0,1.3-1,2.3-2.3,2.3s-2.3-1-2.3-2.3v-5.9c0-1.3,1-2.3,2.3-2.3s2.3,1,2.3,2.3v3.2h-3.4v2.8
			c0,0.7,0.5,1.2,1.2,1.2s1.2-0.5,1.2-1.2v-1.2L72.8,211.2z M69.3,208.7h2.4v-2.1c0-0.7-0.5-1.2-1.2-1.2s-1.2,0.5-1.2,1.2V208.7z"/>
		<path fill="#FFFFFF" d="M78,211.6c0-0.6-0.4-0.9-0.4-0.9l-2.3-1.9c0,0-0.7-0.6-0.7-1.7v-0.6c0-1.2,1-2.2,2.2-2.2
			c1.2,0,2.2,1,2.2,2.2v0.9l-1.1,0.1v-1.1c0-0.6-0.5-1.1-1.1-1.1c-0.6,0-1.1,0.5-1.1,1.1v0.6c0,0.6,0.4,0.9,0.4,0.9l2.3,1.9
			c0,0,0.7,0.6,0.7,1.7v0.9c0,1.3-1,2.3-2.3,2.3s-2.3-1-2.3-2.3v-1l1.1-0.1v1.1c0,0.7,0.5,1.2,1.2,1.2c0.7,0,1.2-0.5,1.2-1.2V211.6z
			"/>
		<path fill="#FFFFFF" d="M81.5,215.8v-0.4c0.3,0,0.5-0.3,0.5-0.7h-0.5v-1.5h1.1v1.3C82.6,215.2,82.1,215.8,81.5,215.8z"/>
		<path fill="#FFFFFF" d="M88.5,201.8h1.1v1.5h-1.1V201.8z M89.6,204.4h-1.1v10.2h1.1V204.4z"/>
		<path fill="#FFFFFF" d="M91.8,214.7v-10.2h0.8l0.2,0.8c0.4-0.5,0.9-0.9,1.6-0.9c1.1,0,2,1,2,2.3v8.1h-1.1v-8.1
			c0-0.7-0.5-1.2-1.2-1.2s-1.2,0.5-1.2,1.2v8.1H91.8z"/>
		<path fill="#FFFFFF" d="M97.9,204.4h1.3v-2l1.1-0.1v2.1h1.3v1.1h-1.3v7.7c0,0.2,0.2,0.4,0.4,0.4v1.1c-0.8,0-1.5-0.7-1.5-1.5v-7.7
			h-1.3V204.4z"/>
		<path fill="#FFFFFF" d="M107.6,211.2v1.3c0,1.3-1,2.3-2.3,2.3s-2.3-1-2.3-2.3v-5.9c0-1.3,1-2.3,2.3-2.3s2.3,1,2.3,2.3v3.2h-3.4
			v2.8c0,0.7,0.5,1.2,1.2,1.2c0.7,0,1.2-0.5,1.2-1.2v-1.2L107.6,211.2z M104.2,208.7h2.4v-2.1c0-0.7-0.5-1.2-1.2-1.2
			c-0.7,0-1.2,0.5-1.2,1.2V208.7z"/>
		<path fill="#FFFFFF" d="M112.8,205.4H112c-0.7,0-1.3,0.6-1.3,1.3v8h-1.1v-10.2h0.8l0.2,0.8c0.4-0.5,1.1-0.9,2.2-0.9V205.4z"/>
		<path fill="#FFFFFF" d="M118.5,213.2c0,0.2,0.2,0.4,0.4,0.4v1.1c-0.4,0-0.8-0.2-1.1-0.5c-0.4,0.4-0.9,0.6-1.5,0.6
			c-1.3,0-2.3-1-2.3-2.3v-1.2c0-1,0.9-1.6,0.9-1.6l1.6-0.9c0,0,0.9-0.5,0.9-1.4v-1c0-0.6-0.5-1.1-1-1.1s-1.1,0.5-1.1,1.1v1.2
			l-1.1,0.1v-1.3c0-1.2,1-2.1,2.1-2.1s2.1,1,2.1,2.1V213.2z M115,212.5c0,0.7,0.5,1.2,1.2,1.2c0.7,0,1.2-0.5,1.2-1.2v-3
			c-0.2,0.2-0.4,0.3-0.4,0.3l-1.6,0.9c0,0-0.4,0.2-0.4,0.6V212.5z"/>
		<path fill="#FFFFFF" d="M122.6,209.6h-0.7v5.1h-1.1v-14l1.1-0.1v8h0.8l1.8-4h1.1l-2.1,4.6l2.1,5.7h-1.1L122.6,209.6z"/>
		<path fill="#FFFFFF" d="M126.6,204.4h1.3v-2l1.1-0.1v2.1h1.3v1.1H129v7.7c0,0.2,0.2,0.4,0.4,0.4v1.1c-0.8,0-1.5-0.7-1.5-1.5v-7.7
			h-1.3V204.4z"/>
		<path fill="#FFFFFF" d="M131.9,201.8h1.1v1.5h-1.1V201.8z M133,204.4h-1.1v10.2h1.1V204.4z"/>
		<path fill="#FFFFFF" d="M137.8,214.7h-1.3l-1.7-10.2h1.1l1.3,8h0l1.3-8h1.1L137.8,214.7z"/>
		<path fill="#FFFFFF" d="M145.5,211.2v1.3c0,1.3-1,2.3-2.3,2.3s-2.3-1-2.3-2.3v-5.9c0-1.3,1-2.3,2.3-2.3s2.3,1,2.3,2.3v3.2h-3.4
			v2.8c0,0.7,0.5,1.2,1.2,1.2c0.7,0,1.2-0.5,1.2-1.2v-1.2L145.5,211.2z M142.1,208.7h2.4v-2.1c0-0.7-0.5-1.2-1.2-1.2
			c-0.7,0-1.2,0.5-1.2,1.2V208.7z"/>
		<path fill="#FFFFFF" d="M150.7,211.6c0-0.6-0.4-0.9-0.4-0.9l-2.3-1.9c0,0-0.7-0.6-0.7-1.7v-0.6c0-1.2,1-2.2,2.2-2.2s2.2,1,2.2,2.2
			v0.9l-1.1,0.1v-1.1c0-0.6-0.5-1.1-1.1-1.1s-1.1,0.5-1.1,1.1v0.6c0,0.6,0.4,0.9,0.4,0.9l2.3,1.9c0,0,0.7,0.6,0.7,1.7v0.9
			c0,1.3-1,2.3-2.3,2.3s-2.3-1-2.3-2.3v-1l1.1-0.1v1.1c0,0.7,0.5,1.2,1.2,1.2s1.2-0.5,1.2-1.2V211.6z"/>
		<path fill="#FFFFFF" d="M158.1,214.7H157v-14l1.1-0.1v4.5c0.4-0.4,0.9-0.7,1.4-0.7c1.1,0,2,1,2,2.3v8.1h-1.1v-8.1
			c0-0.7-0.5-1.2-1.2-1.2s-1.2,0.5-1.2,1.2V214.7z"/>
		<path fill="#FFFFFF" d="M163.7,206.6c0-1.3,1-2.3,2.3-2.3s2.3,1,2.3,2.3v5.9c0,1.3-1,2.3-2.3,2.3s-2.3-1-2.3-2.3V206.6z
			 M165.5,203.4h-1.1v-1.3h1.1V203.4z M164.7,212.5c0,0.7,0.5,1.2,1.2,1.2c0.7,0,1.2-0.5,1.2-1.2v-5.9c0-0.7-0.5-1.2-1.2-1.2
			c-0.7,0-1.2,0.5-1.2,1.2V212.5z M167.4,203.4h-1.1v-1.3h1.1V203.4z"/>
		<path fill="#FFFFFF" d="M173.5,205.4h-0.8c-0.7,0-1.3,0.6-1.3,1.3v8h-1.1v-10.2h0.8l0.2,0.8c0.4-0.5,1.1-0.9,2.2-0.9V205.4z"/>
		<path fill="#FFFFFF" d="M178.1,211.6c0-0.6-0.4-0.9-0.4-0.9l-2.3-1.9c0,0-0.7-0.6-0.7-1.7v-0.6c0-1.2,1-2.2,2.2-2.2
			c1.2,0,2.2,1,2.2,2.2v0.9l-1.1,0.1v-1.1c0-0.6-0.5-1.1-1.1-1.1c-0.6,0-1.1,0.5-1.1,1.1v0.6c0,0.6,0.4,0.9,0.4,0.9l2.3,1.9
			c0,0,0.7,0.6,0.7,1.7v0.9c0,1.3-1,2.3-2.3,2.3s-2.3-1-2.3-2.3v-1l1.1-0.1v1.1c0,0.7,0.5,1.2,1.2,1.2c0.7,0,1.2-0.5,1.2-1.2V211.6z
			"/>
		<path fill="#FFFFFF" d="M181.2,204.4h0.8l0.2,0.8c0.4-0.5,0.9-0.9,1.6-0.9c1.1,0,2,1,2,2.3v5.9c0,1.3-0.9,2.3-2,2.3
			c-0.6,0-1.1-0.3-1.4-0.7v3.9l-1.1,0.1V204.4z M182.3,212.5c0,0.7,0.5,1.2,1.2,1.2c0.7,0,1.2-0.5,1.2-1.2v-5.9
			c0-0.7-0.5-1.2-1.2-1.2c-0.7,0-1.2,0.5-1.2,1.2V212.5z"/>
		<path fill="#FFFFFF" d="M187.9,201.8h1.1v1.5h-1.1V201.8z M189,204.4h-1.1v10.2h1.1V204.4z"/>
		<path fill="#FFFFFF" d="M195.7,211.2v1.3c0,1.3-1,2.3-2.3,2.3s-2.3-1-2.3-2.3v-5.9c0-1.3,1-2.3,2.3-2.3s2.3,1,2.3,2.3v3.2h-3.4
			v2.8c0,0.7,0.5,1.2,1.2,1.2s1.2-0.5,1.2-1.2v-1.2L195.7,211.2z M192.2,208.7h2.4v-2.1c0-0.7-0.5-1.2-1.2-1.2s-1.2,0.5-1.2,1.2
			V208.7z"/>
		<path fill="#FFFFFF" d="M199.2,214.8c-0.8,0-1.5-0.7-1.5-1.5v-12.6l1.1-0.1v12.8c0,0.2,0.2,0.4,0.4,0.4V214.8z"/>
	</g>
	<g>
		<path opacity="0.6" fill="#FFFFFF" d="M22.4,162.2l-11.2,28L0,162.2h5l6.1,15.4l6.2-15.4H22.4z"/>
		<path fill="#FFFFFF" d="M32.7,166.9v7h14v4.6h-14v7h14v4.7H28v-28h18.7v4.7H32.7z"/>
		<path fill="#FFFFFF" d="M60.8,178.5H57v11.7h-4.7v-28h9.3c0,0,9.4,0,9.4,8.2c0,4.5-2.9,6.5-5.4,7.4l5.7,12.4h-5.2L60.8,178.5z
			 M57,173.9h4.6c0,0,4.7,0,4.7-3.5c0-3.5-4.7-3.5-4.7-3.5H57V173.9z"/>
		<path fill="#FFFFFF" d="M97.5,176.2c0,14-16.3,14-16.3,14h-4.7v-28h4.7C81.2,162.2,97.5,162.2,97.5,176.2z M92.9,176.2
			c0-9.3-11.6-9.3-11.6-9.3v18.6C81.2,185.5,92.9,185.5,92.9,176.2z"/>
		<path fill="#FFFFFF" d="M114.6,186.7h-9.5l-1.4,3.5h-5l11.2-28l11.2,28h-5L114.6,186.7z M112.8,182l-2.9-7.2L107,182H112.8z"/>
		<path fill="#FFFFFF" d="M143.4,182.8l3.3,3.3c-2.5,2.5-6,4.1-9.9,4.1c-7.7,0-14-6.3-14-14s6.3-14,14-14c3.9,0,7.4,1.6,9.9,4.1
			l-3.3,3.3c-1.7-1.7-4-2.7-6.6-2.7c-5.2,0-9.3,4.2-9.3,9.3s4.2,9.3,9.3,9.3C139.4,185.5,141.7,184.5,143.4,182.8z"/>
		<path fill="#FFFFFF" d="M173.3,162.2v28h-4.7v-11.7H157v11.7h-4.7v-28h4.7v11.6h11.6v-11.6H173.3z"/>
		<path fill="#FFFFFF" d="M197.6,166.9h-7v23.3H186v-23.3h-7v-4.7h18.7V166.9z"/>
	</g>
</g>
</svg>
